<svg width="501" height="501" viewBox="0 0 501 501" fill="none" xmlns="http://www.w3.org/2000/svg">
<circle cx="250.2" cy="250.2" r="250.2" fill="#FAA320"/>
<path d="M377.8 281.9L343.5 282.1L354.7 311.4L388.4 310.3L377.8 281.9Z" fill="white" stroke="white" stroke-width="0.12" stroke-miterlimit="10"/>
<path d="M419 349.5C415.1 348.5 412 347.3 409.6 345.8C406.1 343.4 403.3 341 401.3 338.5C399.3 336 397.6 332.7 396 328.7L379.5 285.9L345.3 286L363.5 335.3C363.9 336.3 364.2 337.5 364.4 338.9C364.6 340.3 364.7 341.4 364.7 342.3C364.7 344.6 362 346.5 356.7 348.1C351.3 349.7 344.6 350.7 336.5 351.2V362.3H428.7V351.2C426.1 351 422.8 350.5 419 349.5Z" fill="white" stroke="white" stroke-width="0.12" stroke-miterlimit="10"/>
<path d="M354.3 362.2H253.5V351C257.1 350.9 261.8 350.5 267.6 349.9C273.3 349.3 277.3 348.4 279.4 347.2C282.7 345.2 285.2 342.9 286.7 340.3C288.2 337.7 289 334.5 289 330.6V167.6H286.6L208.8 358.6H200.8L126.7 163.6H124.6V297.4C124.6 310.4 125.4 320.2 127.1 326.9C128.8 333.6 131.3 338.5 134.7 341.4C137.1 343.6 141.9 345.7 149.3 347.7C156.7 349.7 161.5 350.8 163.8 350.9V362.1H71.7002V350.9C76.5002 350.5 81.6002 349.7 86.9002 348.5C92.2002 347.3 96.3002 345.6 99.2002 343.3C102.9 340.4 105.5 335.8 106.9 329.7C108.3 323.6 109 313.4 109 299.1V184.5C109 177.9 108.2 172.4 106.6 168.2C105 164 102.7 160.6 99.7002 157.9C96.4002 155.1 92.3002 153 87.5002 151.6C82.7002 150.2 77.9002 149.4 73.2002 149.2V138H151L216.3 306.3L272.1 165.5C274.1 160.3 275.9 154.9 277.3 149.3C278.7 143.7 279.5 139.9 279.6 138H354V149.2C351 149.3 347.2 149.8 342.5 150.6C337.8 151.4 334.4 152.2 332.3 153C328.7 154.3 326.2 156.4 324.9 159.3C323.6 162.2 323 165.5 323 168.9V330.5C323 334.2 323.6 337.3 324.9 339.8C326.2 342.3 328.6 344.5 332.3 346.4C334.2 347.5 337.7 348.4 342.6 349.3C347.5 350.2 351.4 350.7 354.3 350.8V362.2Z" fill="#192A34"/>
<path d="M330.501 159.1C330.001 159.6 329.601 160.2 329.301 160.9C328.301 163.3 327.701 165.9 327.701 168.8V241.5L339.401 271.5H272.701L284.301 241.4V202.3C280.801 211.2 277.301 220.4 273.601 229.9C260.201 264.6 247.901 295.9 236.701 323.7C234.501 329.1 232.301 333.4 230.001 336.4C227.701 339.5 224.501 342.4 220.301 345.2C217.701 346.9 214.401 348.2 210.301 349.2C206.201 350.2 202.901 350.8 200.101 351V362.1H283.601V351C275.401 350.6 268.001 349.2 261.401 346.9C254.801 344.6 251.601 341.4 251.601 337.2C251.601 335.4 251.901 333.1 252.401 330.3C252.901 327.5 253.901 323.8 255.201 319.4C256.701 314.8 258.301 309.8 260.101 304.4C261.901 299 264.301 292.6 267.201 285.3H345.101L345.301 285.7L379.501 285.6L330.501 159.1Z" fill="white"/>
<path d="M250.2 484.4C187.6 484.4 128.8 460 84.6 415.8C40.4 371.6 16 312.7 16 250.2C16 187.7 40.4 128.8 84.6 84.6C128.8 40.4 187.7 16 250.2 16C312.7 16 371.6 40.4 415.8 84.6C460 128.8 484.4 187.7 484.4 250.2C484.4 312.7 460 371.6 415.8 415.8C371.6 460 312.8 484.4 250.2 484.4ZM250.2 37.3C193.4 37.3 139.9 59.4 99.7 99.6C59.5 139.8 37.4 193.2 37.4 250.1C37.4 307 59.5 360.4 99.7 400.6C139.9 440.8 193.3 462.9 250.2 462.9C307.1 462.9 360.5 440.8 400.7 400.6C440.9 360.4 463 307 463 250.1C463 193.2 440.9 139.9 400.7 99.7C360.5 59.5 307.1 37.3 250.2 37.3Z" fill="white"/>
<path d="M250.2 30.2C308.9 30.2 364.2 53.1 405.7 94.6C447.2 136.1 470.1 191.4 470.1 250.1C470.1 308.8 447.2 364.1 405.7 405.6C364.2 447.1 308.9 470 250.2 470C191.5 470 136.2 447.2 94.6996 405.7C53.1996 364.2 30.2996 308.9 30.2996 250.2C30.2996 191.5 53.1996 136.2 94.6996 94.7C136.2 53.1 191.5 30.2 250.2 30.2ZM250.2 23C189.5 23 132.5 46.6 89.5996 89.5C46.6996 132.4 23.0996 189.4 23.0996 250.1C23.0996 310.8 46.6996 367.8 89.5996 410.7C132.5 453.6 189.5 477.2 250.2 477.2C310.9 477.2 367.9 453.6 410.8 410.7C453.7 367.8 477.3 310.8 477.3 250.1C477.3 189.4 453.7 132.4 410.8 89.5C367.9 46.7 310.9 23 250.2 23Z" fill="white"/>
<path d="M250.2 37.4C367.7 37.4 463 132.7 463 250.2C463 367.7 367.7 462.9 250.2 462.9C132.7 462.9 37.3998 367.6 37.3998 250.1C37.3998 132.6 132.7 37.4 250.2 37.4ZM250.2 30.2C220.5 30.2 191.7 36 164.6 47.5C138.4 58.6 114.9 74.4 94.6998 94.6C74.4998 114.8 58.6998 138.3 47.5998 164.5C36.0998 191.6 30.2998 220.4 30.2998 250.1C30.2998 279.8 36.0998 308.6 47.5998 335.7C58.6998 361.9 74.4998 385.4 94.6998 405.6C114.9 425.8 138.4 441.6 164.6 452.7C191.7 464.2 220.5 470 250.2 470C279.9 470 308.7 464.2 335.8 452.7C362 441.6 385.5 425.8 405.7 405.6C425.9 385.4 441.7 361.9 452.8 335.7C464.3 308.6 470.1 279.8 470.1 250.1C470.1 220.4 464.3 191.6 452.8 164.5C441.7 138.3 425.9 114.8 405.7 94.6C385.5 74.4 362 58.6 335.8 47.5C308.7 36 279.9 30.2 250.2 30.2Z" fill="#192A34"/>
</svg>
