<?xml version="1.0" encoding="UTF-8"?><svg id="Layer_1" xmlns="http://www.w3.org/2000/svg" viewBox="0 0 177 177"><g><path d="M88.72,5C42.48,5,5,42.38,5,88.5s37.48,83.5,83.72,83.5c43.44,0,79.15-33,83.31-75.24" style="fill:none; stroke:#182933; stroke-miterlimit:10; stroke-width:10px;"/><path d="M88.3,171.67c46.23,0,83.71-37.38,83.71-83.5S134.53,4.67,88.3,4.67C44.86,4.67,9.16,37.67,5,79.91" style="fill:none; stroke:#fff; stroke-miterlimit:10; stroke-width:3.5px;"/><circle cx="88.69" cy="88.64" r="73.7" style="fill:none; stroke:#cbdce7; stroke-miterlimit:10; stroke-width:7px;"/><circle cx="88.69" cy="88.64" r="65.2" style="fill:none; stroke:#182933; stroke-miterlimit:10; stroke-width:3.5px;"/><path d="M88.52,153.84c36.1,0,65.37-29.19,65.37-65.2S124.62,23.44,88.52,23.44c-33.92,0-61.8,25.77-65.05,58.75" style="fill:none; stroke:#faa31e; stroke-miterlimit:10; stroke-width:7px;"/><circle cx="88.69" cy="88.64" r="58.75" style="fill:none; stroke:#182933; stroke-miterlimit:10; stroke-width:3.5px;"/><path d="M88.84,29.97c-32.49,0-58.83,26.26-58.83,58.66s26.34,58.66,58.83,58.66c30.53,0,55.62-23.19,58.54-52.86" style="fill:none; stroke:#faa31e; stroke-miterlimit:10; stroke-width:7px;"/><circle cx="88.69" cy="88.64" r="52" style="fill:none; stroke:#cbdce7; stroke-miterlimit:10; stroke-width:7px;"/><path d="M88.82,39.94c-26.97,0-48.83,21.8-48.83,48.7s21.86,48.7,48.83,48.7c25.34,0,46.16-19.25,48.59-43.88" style="fill:none; stroke:#182933; stroke-miterlimit:10; stroke-width:7px;"/></g><g id="circles"><polygon points="113.3 94.66 106.63 94.7 108.81 100.39 115.36 100.18 113.3 94.66" style="fill:#faa31e; stroke:#faa31e; stroke-miterlimit:10; stroke-width:.12px;"/><g><g><path d="M121.3,107.8c-.76-.19-1.36-.43-1.83-.72-.68-.47-1.22-.93-1.61-1.42s-.72-1.13-1.03-1.9l-3.21-8.32-6.65,.02,3.54,9.58c.08,.19,.14,.43,.17,.7s.06,.49,.06,.66c0,.45-.52,.82-1.55,1.13-1.05,.31-2.35,.51-3.93,.6v2.16h17.92v-2.16c-.51-.04-1.15-.14-1.89-.33h0Z" style="fill:#faa31e; stroke:#faa31e; stroke-miterlimit:10; stroke-width:.12px;"/><g><path d="M108.73,110.27h-19.59v-2.18c.7-.02,1.61-.1,2.74-.21,1.11-.12,1.89-.29,2.29-.52,.64-.39,1.13-.84,1.42-1.34s.45-1.13,.45-1.89v-31.68h-.47l-15.12,37.12h-1.55l-14.4-37.89h-.41v26c0,2.53,.16,4.43,.49,5.73s.82,2.25,1.48,2.82c.47,.43,1.4,.84,2.84,1.22s2.37,.6,2.82,.62v2.18h-17.9v-2.18c.93-.08,1.92-.23,2.95-.47,1.03-.23,1.83-.56,2.39-1.01,.72-.56,1.22-1.46,1.5-2.64,.27-1.19,.41-3.17,.41-5.95v-22.27c0-1.28-.16-2.35-.47-3.17s-.76-1.48-1.34-2c-.64-.54-1.44-.95-2.37-1.22-.93-.27-1.87-.43-2.78-.47v-2.18h15.12l12.69,32.71,10.84-27.36c.39-1.01,.74-2.06,1.01-3.15,.27-1.09,.43-1.83,.45-2.2h14.46v2.18c-.58,.02-1.32,.12-2.23,.27-.91,.16-1.57,.31-1.98,.47-.7,.25-1.19,.66-1.44,1.22-.25,.56-.37,1.2-.37,1.87v31.4c0,.72,.12,1.32,.37,1.81,.25,.49,.72,.91,1.44,1.28,.37,.21,1.05,.39,2,.56,.95,.17,1.71,.27,2.27,.29v2.22h0Z" style="fill:#182933;"/><path d="M104.1,70.8c-.1,.1-.17,.21-.23,.35-.19,.47-.31,.97-.31,1.54v14.13l2.27,5.83h-12.96l2.25-5.85v-7.6c-.68,1.73-1.36,3.52-2.08,5.36-2.6,6.74-4.99,12.83-7.17,18.23-.43,1.05-.86,1.89-1.3,2.47-.45,.6-1.07,1.17-1.89,1.71-.51,.33-1.15,.58-1.94,.78s-1.44,.31-1.98,.35v2.16h16.23v-2.16c-1.59-.08-3.03-.35-4.31-.8-1.28-.45-1.9-1.07-1.9-1.89,0-.35,.06-.8,.16-1.34s.29-1.26,.54-2.12c.29-.89,.6-1.87,.95-2.91s.82-2.29,1.38-3.71h15.14l.04,.08,6.65-.02-9.52-24.58h0Z" style="fill:#faa31e;"/></g></g><path d="M88.5,134.01c-12.17,0-23.59-4.74-32.18-13.33-8.59-8.59-13.33-20.04-13.33-32.18s4.74-23.59,13.33-32.18c8.59-8.59,20.04-13.33,32.18-13.33s23.59,4.74,32.18,13.33c8.59,8.59,13.33,20.04,13.33,32.18s-4.74,23.59-13.33,32.18c-8.59,8.59-20.02,13.33-32.18,13.33Zm0-86.89c-11.04,0-21.43,4.29-29.25,12.11s-12.11,18.19-12.11,29.25,4.29,21.43,12.11,29.25c7.81,7.81,18.19,12.11,29.25,12.11s21.43-4.29,29.25-12.11,12.11-18.19,12.11-29.25-4.29-21.42-12.11-29.23c-7.81-7.81-18.19-12.13-29.25-12.13Z" style="fill:#fff;"/><path d="M88.5,45.75c11.41,0,22.15,4.45,30.22,12.52,8.06,8.06,12.52,18.81,12.52,30.22s-4.45,22.15-12.52,30.22c-8.06,8.06-18.81,12.52-30.22,12.52s-22.15-4.43-30.22-12.5c-8.06-8.06-12.52-18.81-12.52-30.22s4.45-22.15,12.52-30.22c8.06-8.08,18.81-12.53,30.22-12.53m0-1.4c-11.8,0-22.87,4.59-31.21,12.92-8.34,8.34-12.92,19.41-12.92,31.21s4.59,22.87,12.92,31.21,19.41,12.92,31.21,12.92,22.87-4.59,31.21-12.92,12.92-19.41,12.92-31.21-4.59-22.87-12.92-31.21c-8.34-8.32-19.41-12.92-31.21-12.92h0Z" style="fill:#faa31e;"/><path d="M88.5,47.15c22.83,0,41.35,18.52,41.35,41.35s-18.52,41.33-41.35,41.33-41.35-18.52-41.35-41.35,18.52-41.33,41.35-41.33m0-1.4c-5.77,0-11.37,1.13-16.63,3.36-5.09,2.16-9.66,5.23-13.58,9.15s-7,8.49-9.15,13.58c-2.23,5.27-3.36,10.86-3.36,16.63s1.13,11.37,3.36,16.63c2.16,5.09,5.23,9.66,9.15,13.58s8.49,7,13.58,9.15c5.27,2.23,10.86,3.36,16.63,3.36s11.37-1.13,16.63-3.36c5.09-2.16,9.66-5.23,13.58-9.15,3.93-3.93,7-8.49,9.15-13.58,2.23-5.27,3.36-10.86,3.36-16.63s-1.13-11.37-3.36-16.63c-2.16-5.09-5.23-9.66-9.15-13.58-3.93-3.93-8.49-7-13.58-9.15-5.27-2.23-10.86-3.36-16.63-3.36h0Z" style="fill:#182933;"/></g></g></svg>